<svg width="16" height="16" viewBox="0 0 16 16" fill="none" xmlns="http://www.w3.org/2000/svg">
<mask id="path-1-inside-1" fill="white">
<path fill-rule="evenodd" clip-rule="evenodd" d="M7.41303 5.5C7.07445 6.93335 5.78679 8 4.25 8C2.45507 8 1 6.54493 1 4.75C1 2.95507 2.45507 1.5 4.25 1.5C5.78679 1.5 7.07445 2.56665 7.41303 4H13C13.4142 4 13.75 4.33579 13.75 4.75C13.75 5.16421 13.4142 5.5 13 5.5H7.41303ZM2.25 11.25C2.25 10.8358 2.58579 10.5 3 10.5H8.58697C8.92555 9.06665 10.2132 8 11.75 8C13.5449 8 15 9.45507 15 11.25C15 13.0449 13.5449 14.5 11.75 14.5C10.2132 14.5 8.92555 13.4334 8.58697 12H3C2.58579 12 2.25 11.6642 2.25 11.25Z"/>
</mask>
<path fill-rule="evenodd" clip-rule="evenodd" d="M7.41303 5.5C7.07445 6.93335 5.78679 8 4.25 8C2.45507 8 1 6.54493 1 4.75C1 2.95507 2.45507 1.5 4.25 1.5C5.78679 1.5 7.07445 2.56665 7.41303 4H13C13.4142 4 13.75 4.33579 13.75 4.75C13.75 5.16421 13.4142 5.5 13 5.5H7.41303ZM2.25 11.25C2.25 10.8358 2.58579 10.5 3 10.5H8.58697C8.92555 9.06665 10.2132 8 11.75 8C13.5449 8 15 9.45507 15 11.25C15 13.0449 13.5449 14.5 11.75 14.5C10.2132 14.5 8.92555 13.4334 8.58697 12H3C2.58579 12 2.25 11.6642 2.25 11.25Z" fill="#A8A8A8"/>
<path d="M7.41303 5.5V4.5H6.62173L6.43982 5.27011L7.41303 5.5ZM7.41303 4L6.43982 4.22989L6.62173 5H7.41303V4ZM8.58697 10.5V11.5H9.37827L9.56018 10.7299L8.58697 10.5ZM8.58697 12L9.56018 11.7701L9.37827 11H8.58697V12ZM4.25 9C6.26095 9 7.94348 7.60431 8.38625 5.72989L6.43982 5.27011C6.20542 6.26239 5.31263 7 4.25 7V9ZM0 4.75C0 7.09721 1.90279 9 4.25 9V7C3.00736 7 2 5.99264 2 4.75H0ZM4.25 0.5C1.90279 0.5 0 2.40279 0 4.75H2C2 3.50736 3.00736 2.5 4.25 2.5V0.5ZM8.38625 3.77011C7.94348 1.89569 6.26095 0.5 4.25 0.5V2.5C5.31263 2.5 6.20542 3.23761 6.43982 4.22989L8.38625 3.77011ZM13 3H7.41303V5H13V3ZM14.75 4.75C14.75 3.7835 13.9665 3 13 3V5C12.8619 5 12.75 4.88807 12.75 4.75H14.75ZM13 6.5C13.9665 6.5 14.75 5.7165 14.75 4.75H12.75C12.75 4.61193 12.8619 4.5 13 4.5V6.5ZM7.41303 6.5H13V4.5H7.41303V6.5ZM3 9.5C2.0335 9.5 1.25 10.2835 1.25 11.25H3.25C3.25 11.3881 3.13807 11.5 3 11.5V9.5ZM8.58697 9.5H3V11.5H8.58697V9.5ZM9.56018 10.7299C9.79458 9.73761 10.6874 9 11.75 9V7C9.73905 7 8.05652 8.39569 7.61375 10.2701L9.56018 10.7299ZM11.75 9C12.9926 9 14 10.0074 14 11.25H16C16 8.90279 14.0972 7 11.75 7V9ZM14 11.25C14 12.4926 12.9926 13.5 11.75 13.5V15.5C14.0972 15.5 16 13.5972 16 11.25H14ZM11.75 13.5C10.6874 13.5 9.79458 12.7624 9.56018 11.7701L7.61375 12.2299C8.05652 14.1043 9.73905 15.5 11.75 15.5V13.5ZM3 13H8.58697V11H3V13ZM1.25 11.25C1.25 12.2165 2.0335 13 3 13V11C3.13807 11 3.25 11.1119 3.25 11.25H1.25Z" fill="#A8A8A8" mask="url(#path-1-inside-1)"/>
</svg>
